<svg fill="none" height="24" viewBox="0 0 24 24" width="24" xmlns="http://www.w3.org/2000/svg"><path d="m20 7c0 2.20914-3.5817 4-8 4-4.41828 0-8-1.79086-8-4s3.58172-4 8-4c4.4183 0 8 1.79086 8 4z" fill="#323232" opacity=".1"/><path d="m19.75 13.4766c-.4359.6159-1.1309 1.1501-1.9813 1.5754-1.4893.7446-3.5292 1.198-5.7687 1.198-2.23953 0-4.27941-.4534-5.76866-1.198-.85048-.4253-1.54547-.9595-1.98134-1.5754v3.5234c0 .9588.78381 1.8942 2.20495 2.6048 1.40618.7031 3.36631 1.1452 5.54505 1.1452 2.1787 0 4.1389-.4421 5.5451-1.1452 1.4211-.7106 2.2049-1.646 2.2049-2.6048z" fill="#323232" opacity=".1"/><g stroke="#323232" stroke-width="2"><path d="m20 7c0 2.20914-3.5817 4-8 4-4.41828 0-8-1.79086-8-4s3.58172-4 8-4c4.4183 0 8 1.79086 8 4z"/><path d="m20 12c0 2.2091-3.5817 4-8 4-4.41828 0-8-1.7909-8-4"/><path d="m4 7v10c0 2.2091 3.58172 4 8 4 4.4183 0 8-1.7909 8-4v-10"/></g></svg>