<svg fill="none" height="24" viewBox="0 0 24 24" width="24" xmlns="http://www.w3.org/2000/svg"><g fill="#1c274c"><path d="m7 9c0 .55228-.44772 1-1 1s-1-.44772-1-1 .44772-1 1-1 1 .44772 1 1z"/><path d="m7 12c0 .5523-.44772 1-1 1s-1-.4477-1-1 .44772-1 1-1 1 .4477 1 1z"/><path d="m10 12c0 .5523-.44772 1-1 1s-1-.4477-1-1 .44772-1 1-1 1 .4477 1 1z"/><path d="m10 9c0 .55228-.44772 1-1 1s-1-.44772-1-1 .44772-1 1-1 1 .44772 1 1z"/><path d="m13 9c0 .55228-.4477 1-1 1s-1-.44772-1-1 .4477-1 1-1 1 .44772 1 1z"/><path d="m13 12c0 .5523-.4477 1-1 1s-1-.4477-1-1 .4477-1 1-1 1 .4477 1 1z"/><path d="m16 9c0 .55228-.4477 1-1 1s-1-.44772-1-1 .4477-1 1-1 1 .44772 1 1z"/><path d="m16 12c0 .5523-.4477 1-1 1s-1-.4477-1-1 .4477-1 1-1 1 .4477 1 1z"/><path d="m19 9c0 .55228-.4477 1-1 1s-1-.44772-1-1 .4477-1 1-1 1 .44772 1 1z"/><path d="m19 12c0 .5523-.4477 1-1 1s-1-.4477-1-1 .4477-1 1-1 1 .4477 1 1z"/></g><path d="m2 11c0-2.82843 0-4.24264.87868-5.12132s2.29289-.87868 5.12132-.87868h8c2.8284 0 4.2426 0 5.1213.87868s.8787 2.29289.8787 5.12132v2c0 2.8284 0 4.2426-.8787 5.1213s-2.2929.8787-5.1213.8787h-8c-2.82843 0-4.24264 0-5.12132-.8787s-.87868-2.2929-.87868-5.1213z" stroke="#1c274c" stroke-width="1.5"/><path d="m7 16h10" stroke="#1c274c" stroke-linecap="round" stroke-width="1.5"/></svg>