<svg fill="none" height="24" viewBox="0 0 24 24" width="24" xmlns="http://www.w3.org/2000/svg"><path d="m19.6471 15.5357h-15.29416m15.29416 0v-7.5357c0-1.88562 0-2.82843-.5858-3.41421-.5858-.58579-1.5286-.58579-3.4142-.58579h-7.29416c-1.88562 0-2.82843 0-3.41421.58579-.58579.58578-.58579 1.52859-.58579 3.41421v7.5357m15.29416 0 1.744 1.8001c.0445.046.0668.069.0876.0918.3211.3526.5056.8082.5203 1.2848.001.0309.001.0629.001.1269 0 .1492 0 .2238-.004.2868-.0635 1.0053-.8646 1.8064-1.8699 1.8699-.063.004-.1376.004-.2868.004h-15.67862c-.1492 0-.2238 0-.2868-.004-1.00523-.0635-1.80639-.8646-1.8699-1.8699-.00398-.063-.00398-.1376-.00398-.2868 0-.064 0-.096.00096-.1269.01473-.4766.19926-.9322.52031-1.2848.02081-.0228.04311-.0458.08761-.0918l1.74406-1.8001" stroke="#1c274c" stroke-linecap="round" stroke-width="1.5"/><path d="m9.5 18.5h5" stroke="#1c274c" stroke-linecap="round" stroke-width="1.5"/><path d="m12.75 6.75c0 .41421-.3358.75-.75.75s-.75-.33579-.75-.75.3358-.75.75-.75.75.33579.75.75z" fill="#1c274c"/></svg>