<svg fill="none" height="24" viewBox="0 0 24 24" width="24" xmlns="http://www.w3.org/2000/svg"><g stroke="#1c274c" stroke-width="1.5"><path d="m16.6522 3.45508s.0811 1.37873 1.2977 2.59526c1.2165 1.21653 2.5952 1.29763 2.5952 1.29763m-10.4449 8.23963-1.6876-1.6876" opacity=".5"/><path d="m16.652 3.45506.6489-.64882c1.075-1.07499 2.8179-1.07499 3.8929 0 1.0749 1.075 1.0749 2.81791 0 3.8929l-.6489.64881-5.9648 5.96485c-.404.404-.606.606-.8288.7798-.2627.2049-.547.3806-.8478.524-.255.1215-.526.2118-1.0681.3925l-1.7354.5785-1.12291.3743c-.26674.0889-.56083.0195-.75965-.1793-.19882-.1989-.26824-.4929-.17933-.7597l.37431-1.1229.57847-1.7354c.18068-.5421.27102-.8131.39255-1.0681.14335-.3008.31905-.5851.52399-.8478.17377-.2228.37577-.42476.77977-.82877z"/><path d="m22 12c0 5.5228-4.4772 10-10 10-5.52285 0-10-4.4772-10-10 0-5.52285 4.47715-10 10-10" opacity=".5" stroke-linecap="round"/></g></svg>