<svg fill="none" height="24" viewBox="0 0 24 24" width="24" xmlns="http://www.w3.org/2000/svg"><g stroke="#1c274c" stroke-width="1.5"><circle cx="12" cy="12" r="3"/><path d="m13.7654 2.15224c-.3676-.15224-.8335-.15224-1.7654-.15224s-1.3978 0-1.7654.15224c-.49003.20299-.87938.59234-1.08237 1.08239-.09266.22371-.12893.48387-.14312.86336-.02085.55769-.30685 1.0739-.79017 1.35294-.4833.27903-1.07335.26861-1.56675.00783-.33574-.17746-.57918-.27614-.81925-.30774-.5259-.06924-1.05776.07327-1.47858.39618-.31562.24218-.54859.6457-1.01453 1.45273-.46594.80704-.69891 1.21055-.75084 1.60498-.06923.52589.07328 1.05775.39619 1.47859.14738.1921.35452.3535.67601.5555.47261.297.7767.8029.77667 1.361s-.30411 1.0639-.77668 1.3608c-.32153.2021-.5287.3636-.6761.5557-.32291.4208-.46542.9526-.39618 1.4785.05192.3944.28489.798.75083 1.605.46595.807.69892 1.2106 1.01453 1.4527.42082.3229.95268.4654 1.47858.3962.24005-.0316.48348-.1303.8192-.3077.49343-.2608 1.08352-.2712 1.56686.0078.48334.2791.76936.7953.79021 1.3531.0142.3794.05046.6396.14312.8633.20299.49.59234.8794 1.08237 1.0824.3676.1522.8335.1522 1.7654.1522s1.3978 0 1.7654-.1522c.49-.203.8794-.5924 1.0823-1.0824.0927-.2237.129-.4839.1432-.8634.0208-.5577.3068-1.0739.7901-1.353s1.0734-.2686 1.5669-.0078c.3357.1774.5791.276.8191.3076.5259.0693 1.0578-.0732 1.4786-.3961.3156-.2422.5486-.6457 1.0145-1.4528.466-.807.699-1.2105.7509-1.6049.0692-.5259-.0733-1.0578-.3962-1.4786-.1474-.1921-.3546-.3536-.6761-.5556-.4725-.2969-.7766-.8028-.7766-1.3609s.3041-1.0638.7766-1.3607c.3216-.2021.5288-.3635.6762-.5557.3229-.42077.4654-.95263.3962-1.47853-.0519-.39442-.2849-.79794-.7509-1.60497-.4659-.80703-.6989-1.21055-1.0145-1.45273-.4208-.32291-.9527-.46542-1.4786-.39618-.24.0316-.4834.13027-.8192.30771-.4934.26079-1.0835.27122-1.5668-.00784-.4834-.27905-.7694-.7953-.7902-1.35302-.0142-.37946-.0505-.63961-.1432-.86331-.2029-.49005-.5923-.8794-1.0823-1.08239z"/></g></svg>