<svg fill="none" height="24" viewBox="0 0 24 24" width="24" xmlns="http://www.w3.org/2000/svg"><g stroke="#1c274c" stroke-width="1.5"><path d="m9.50004 2h4.99996l.6518 6.51737c.1864 1.86463-1.2778 3.48263-3.1518 3.48263-1.8739 0-3.33816-1.618-3.1517-3.48263z"/><path d="m3.32975 5.35133c.17808-.8904.26712-1.3356.44816-1.69649.38147-.76045 1.06788-1.32316 1.88837-1.54809.38939-.10675.84341-.10675 1.75143-.10675h2.08231l-.72453 7.24527c-.15638 1.56383-1.47231 2.75473-3.04394 2.75473-1.93045 0-3.37831-1.7661-2.99972-3.65907z"/><path d="m20.6703 5.35133c-.1781-.8904-.2672-1.3356-.4482-1.69649-.3815-.76045-1.0679-1.32316-1.8884-1.54809-.3894-.10675-.8434-.10675-1.7514-.10675h-2.0823l.7245 7.24527c.1564 1.56383 1.4723 2.75473 3.044 2.75473 1.9304 0 3.3783-1.7661 2.9997-3.65907z"/></g><path d="m8.75 21.5c0 .4142.33579.75.75.75s.75-.3358.75-.75zm5 0c0 .4142.3358.75.75.75s.75-.3358.75-.75zm0-5.299.375-.6496zm.549.549-.6495.375zm-4.59804 0 .64954.375zm.54904-.549.375.6495zm2.25 5.049h-1v1.5h1zm-8.25-7.25v-3h-1.5v3zm15.5-3v3h1.5v-3zm-8.25 10.25c-1.90682 0-3.26149-.0016-4.28915-.1398-1.00609-.1352-1.58574-.3889-2.00895-.8121l-1.06066 1.0607c.74837.7483 1.69731 1.0804 2.86974 1.2381 1.15084.1547 2.6246.1531 4.48902.1531zm-8.75-7.25c0 1.8644-.00159 3.3382.15313 4.489.15763 1.1724.48975 2.1214 1.23811 2.8698l1.06066-1.0607c-.42321-.4232-.67688-1.0029-.81214-2.0089-.13817-1.0277-.13976-2.3824-.13976-4.2892zm9.75 8.75c1.8644 0 3.3382.0016 4.489-.1531 1.1724-.1577 2.1214-.4898 2.8698-1.2381l-1.0607-1.0607c-.4232.4232-1.0029.6769-2.0089.8121-1.0277.1382-2.3824.1398-4.2892.1398zm7.25-8.75c0 1.9068-.0016 3.2615-.1398 4.2892-.1352 1.006-.3889 1.5857-.8121 2.0089l1.0607 1.0607c.7483-.7484 1.0804-1.6974 1.2381-2.8698.1547-1.1508.1531-2.6246.1531-4.489zm-9.5 7.5v-3h-1.5v3zm3.5-3v3h1.5v-3zm-1.75-1.75c.4811 0 .7918.0007 1.0273.0221.2251.0204.3068.0548.3477.0784l.75-1.2991c-.3072-.1773-.6332-.2434-.9623-.2732-.3189-.0289-.7092-.0282-1.1627-.0282zm3.25 1.75c0-.4535.0007-.8438-.0282-1.1627-.0298-.3291-.0959-.6551-.2732-.9623l-1.2991.75c.0236.0409.058.1226.0784.3477.0214.2355.0221.5462.0221 1.0273zm-1.875-1.6495c.114.0658.2087.1605.2745.2745l1.2991-.75c-.1975-.342-.4816-.6261-.8236-.8236zm-3.125 1.6495c0-.4811.0007-.7918.0221-1.0273.0204-.2251.0548-.3068.0784-.3477l-1.29906-.75c-.17737.3072-.24342.6332-.27326.9623-.0289.3189-.02818.7092-.02818 1.1627zm1.75-3.25c-.4535 0-.8438-.0007-1.1627.0282-.3291.0298-.6551.0959-.9623.2732l.75 1.2991c.0409-.0236.1226-.058.3477-.0784.2355-.0214.5462-.0221 1.0273-.0221zm-1.6495 1.875c.0658-.114.1605-.2087.2745-.2745l-.75-1.2991c-.34204.1975-.62608.4816-.82356.8236z" fill="#1c274c" opacity=".5"/></svg>