<svg fill="none" height="24" viewBox="0 0 24 24" width="24" xmlns="http://www.w3.org/2000/svg"><path d="m3 8c0-1.88562 0-2.82843.58579-3.41421.58578-.58579 1.52859-.58579 3.41421-.58579h5 5c1.8856 0 2.8284 0 3.4142.58579.5858.58578.5858 1.52859.5858 3.41421v4 4c0 1.8856 0 2.8284-.5858 3.4142s-1.5286.5858-3.4142.5858h-5-5c-1.88562 0-2.82843 0-3.41421-.5858-.58579-.5858-.58579-1.5286-.58579-3.4142v-4z" fill="#323232" opacity=".1"/><g stroke="#323232" stroke-width="2"><path d="m13 15h3" stroke-linecap="round"/><path d="m8 15 2.5-2.5c.2761-.2761.2761-.7239 0-1l-2.5-2.5" stroke-linecap="round" stroke-linejoin="round"/><path d="m3 8c0-1.88562 0-2.82843.58579-3.41421.58578-.58579 1.52859-.58579 3.41421-.58579h5 5c1.8856 0 2.8284 0 3.4142.58579.5858.58578.5858 1.52859.5858 3.41421v4 4c0 1.8856 0 2.8284-.5858 3.4142s-1.5286.5858-3.4142.5858h-5-5c-1.88562 0-2.82843 0-3.41421-.5858-.58579-.5858-.58579-1.5286-.58579-3.4142v-4z" stroke-linejoin="round"/></g></svg>